File Name

Salt 2010 R5 LiNE H264.mp4

File Size
Format : MPEG-4
Format profile : Base Media
Codec ID : isom
File size : 1.09 GiB
Duration : 1h 35mn
Overall bit rate : 1 631 Kbps

Video
ID : 1
Format : AVC
Format/Info : Advanced Video Codec
Format profile : High@L4.1
Format settings, CABAC : Yes
Format settings, ReFrames : 3 frames
Codec ID : avc1
Codec ID/Info : Advanced Video Coding
Duration : 1h 35mn
Bit rate mode : Variable
Bit rate : 1 500 Kbps
Maximum bit rate : 6 585 Kbps
Width : 720 pixels
Height : 304 pixels
Display aspect ratio : 2.35:1
Original display aspect ratio : 2.35:1
Frame rate mode : Constant
Frame rate : 25.000 fps
Resolution : 24 bits
Colorimetry : 4:2:0
Scan type : Progressive
Bits/(Pixel*Frame) : 0.274
Stream size : 1.00 GiB (92%)

Audio 
ID : 2
Format : AAC
Format/Info : Advanced Audio Codec
Format version : Version 4
Format profile : LC
Format settings, SBR : No
Codec ID : 40
Duration : 1h 35mn
Bit rate mode : Variable
Bit rate : 128 Kbps
Maximum bit rate : 135 Kbps
Channel(s) : 2 channels
Channel positions : L R
Sampling rate : 48.0 KHz
Resolution : 16 bits
Stream size : 87.8 MiB (8%)

English SRT : Hard coded english subs when needed

Language : English


 
http://www.imdb.com/title/tt0944835/

Release Date: 23 July 2010 (USA) 

Genre: Action | Mystery | Thriller 

Plot: A CIA agent goes on the run after a defector accuses her of being a Russian spy.

Cast: 
Angelina Jolie ... Evelyn Salt
Liev Schreiber ... Ted Winter
Chiwetel Ejiofor ... Peabody
Daniel Olbrychski ... Vassily Orlov
August Diehl ... Mike Krause
Daniel Pearce ... Young Orlov
Hunt Block ... U.S. President Lewis
Andre Braugher ... Secretary of Defense
Olek Krupa ... Russian President Matveyev
Cassidy Hinkle ... 12-Year-Old Chenkov
Corey Stoll ... Shnaider
Vladislav Koulikov ... Chenkov's Father
Olya Zueva ... Chenkov's Mother
Kevin O'Donnell ... Young CIA Officer
Gaius Charles ... CIA Officer



Screenshots:
 
http://postimg.com/image/20000/19943.jpg
 
http://postimg.com/image/20000/19944.jpg